<svg width="64" height="64" viewBox="0 0 64 64" xmlns="http://www.w3.org/2000/svg">
  <!-- Mature plant with flower -->
  <ellipse cx="32" cy="55" rx="24" ry="4" fill="#8B7355"/>
  <!-- Main stem -->
  <line x1="32" y1="52" x2="32" y2="12" stroke="#228B22" stroke-width="5"/>
  <!-- Branches -->
  <line x1="32" y1="20" x2="22" y2="15" stroke="#228B22" stroke-width="2"/>
  <line x1="32" y1="25" x2="42" y2="20" stroke="#228B22" stroke-width="2"/>
  <line x1="32" y1="30" x2="24" y2="25" stroke="#228B22" stroke-width="2"/>
  <!-- Large leaves -->
  <ellipse cx="18" cy="35" rx="8" ry="5" fill="#32CD32"/>
  <ellipse cx="46" cy="37" rx="8" ry="5" fill="#32CD32"/>
  <ellipse cx="16" cy="25" rx="6" ry="4" fill="#32CD32"/>
  <ellipse cx="48" cy="22" rx="6" ry="4" fill="#32CD32"/>
  <ellipse cx="20" cy="15" rx="5" ry="3" fill="#32CD32"/>
  <ellipse cx="44" cy="18" rx="5" ry="3" fill="#32CD32"/>
  <!-- Flower -->
  <circle cx="32" cy="10" r="4" fill="#FFD700"/>
  <circle cx="28" cy="8" r="2" fill="#FF69B4"/>
  <circle cx="36" cy="8" r="2" fill="#FF69B4"/>
  <circle cx="30" cy="14" r="2" fill="#FF69B4"/>
  <circle cx="34" cy="14" r="2" fill="#FF69B4"/>
</svg>