<svg width="64" height="64" viewBox="0 0 64 64" xmlns="http://www.w3.org/2000/svg">
  <!-- Soil -->
  <ellipse cx="32" cy="55" rx="28" ry="4" fill="#8B7355"/>
  
  <!-- Trunk -->
  <rect x="28" y="45" width="8" height="12" fill="#8B4513"/>
  
  <!-- Main stem -->
  <line x1="32" y1="45" x2="32" y2="8" stroke="#8B4513" stroke-width="6"/>
  
  <!-- Branches -->
  <line x1="32" y1="15" x2="18" y2="10" stroke="#8B4513" stroke-width="3"/>
  <line x1="32" y1="20" x2="46" y2="15" stroke="#8B4513" stroke-width="3"/>
  <line x1="32" y1="25" x2="20" y2="20" stroke="#8B4513" stroke-width="3"/>
  <line x1="32" y1="30" x2="44" y2="25" stroke="#8B4513" stroke-width="3"/>
  
  <!-- Large leaves -->
  <ellipse cx="15" cy="25" rx="12" ry="8" fill="#228B22"/>
  <ellipse cx="49" cy="27" rx="12" ry="8" fill="#228B22"/>
  <ellipse cx="32" cy="20" rx="10" ry="6" fill="#32CD32"/>
  <ellipse cx="25" cy="35" rx="10" ry="6" fill="#228B22"/>
  <ellipse cx="39" cy="35" rx="10" ry="6" fill="#228B22"/>
  
  <!-- Flowers -->
  <circle cx="20" cy="22" r="3" fill="#FF69B4"/>
  <circle cx="44" cy="25" r="3" fill="#FFD700"/>
  <circle cx="32" cy="18" r="3" fill="#9370DB"/>
  <circle cx="28" cy="33" r="2.5" fill="#DC143C"/>
  <circle cx="36" cy="33" r="2.5" fill="#FF8C00"/>
  
  <!-- Sparkles -->
  <circle cx="8" cy="15" r="1" fill="#FFD700"/>
  <circle cx="52" cy="18" r="1" fill="#FFD700"/>
  <circle cx="45" cy="45" r="1" fill="#FFD700"/>
  <circle cx="15" cy="48" r="1" fill="#FFD700"/>
</svg>